<mxfile host="app.diagrams.net" agent="Mozilla/5.0 (Windows NT 10.0; Win64; x64) AppleWebKit/537.36 (KHTML, like Gecko) Chrome/127.0.0.0 Safari/537.36" version="24.7.7">
  <diagram id="C5RBs43oDa-KdzZeNtuy" name="Page-1">
    <mxGraphModel dx="1500" dy="796" grid="1" gridSize="10" guides="1" tooltips="1" connect="1" arrows="1" fold="1" page="1" pageScale="1" pageWidth="827" pageHeight="1169" math="0" shadow="0">
      <root>
        <mxCell id="WIyWlLk6GJQsqaUBKTNV-0" />
        <mxCell id="WIyWlLk6GJQsqaUBKTNV-1" parent="WIyWlLk6GJQsqaUBKTNV-0" />
        <mxCell id="DnL3-409vMnIPWBH1ea4-2" style="edgeStyle=orthogonalEdgeStyle;rounded=0;orthogonalLoop=1;jettySize=auto;html=1;" edge="1" parent="WIyWlLk6GJQsqaUBKTNV-1" source="DnL3-409vMnIPWBH1ea4-0">
          <mxGeometry relative="1" as="geometry">
            <mxPoint x="390" y="180" as="targetPoint" />
          </mxGeometry>
        </mxCell>
        <mxCell id="DnL3-409vMnIPWBH1ea4-0" value="&lt;h1&gt;Start&lt;/h1&gt;" style="rounded=1;whiteSpace=wrap;html=1;" vertex="1" parent="WIyWlLk6GJQsqaUBKTNV-1">
          <mxGeometry x="290" y="60" width="200" height="60" as="geometry" />
        </mxCell>
        <mxCell id="DnL3-409vMnIPWBH1ea4-4" style="edgeStyle=orthogonalEdgeStyle;rounded=0;orthogonalLoop=1;jettySize=auto;html=1;entryX=0.5;entryY=0;entryDx=0;entryDy=0;" edge="1" parent="WIyWlLk6GJQsqaUBKTNV-1" source="DnL3-409vMnIPWBH1ea4-1" target="DnL3-409vMnIPWBH1ea4-3">
          <mxGeometry relative="1" as="geometry" />
        </mxCell>
        <mxCell id="DnL3-409vMnIPWBH1ea4-1" value="&lt;font style=&quot;font-size: 20px;&quot;&gt;&amp;nbsp;int num = 7;&lt;/font&gt;" style="shape=parallelogram;perimeter=parallelogramPerimeter;whiteSpace=wrap;html=1;fixedSize=1;" vertex="1" parent="WIyWlLk6GJQsqaUBKTNV-1">
          <mxGeometry x="290" y="180" width="190" height="70" as="geometry" />
        </mxCell>
        <mxCell id="DnL3-409vMnIPWBH1ea4-8" style="edgeStyle=orthogonalEdgeStyle;rounded=0;orthogonalLoop=1;jettySize=auto;html=1;" edge="1" parent="WIyWlLk6GJQsqaUBKTNV-1" source="DnL3-409vMnIPWBH1ea4-3">
          <mxGeometry relative="1" as="geometry">
            <mxPoint x="230" y="365" as="targetPoint" />
          </mxGeometry>
        </mxCell>
        <mxCell id="DnL3-409vMnIPWBH1ea4-11" style="edgeStyle=orthogonalEdgeStyle;rounded=0;orthogonalLoop=1;jettySize=auto;html=1;entryX=0;entryY=0.5;entryDx=0;entryDy=0;" edge="1" parent="WIyWlLk6GJQsqaUBKTNV-1" source="DnL3-409vMnIPWBH1ea4-3" target="DnL3-409vMnIPWBH1ea4-10">
          <mxGeometry relative="1" as="geometry" />
        </mxCell>
        <mxCell id="DnL3-409vMnIPWBH1ea4-13" style="edgeStyle=orthogonalEdgeStyle;rounded=0;orthogonalLoop=1;jettySize=auto;html=1;entryX=0.5;entryY=0;entryDx=0;entryDy=0;" edge="1" parent="WIyWlLk6GJQsqaUBKTNV-1" source="DnL3-409vMnIPWBH1ea4-3" target="DnL3-409vMnIPWBH1ea4-12">
          <mxGeometry relative="1" as="geometry">
            <mxPoint x="385" y="530" as="targetPoint" />
          </mxGeometry>
        </mxCell>
        <mxCell id="DnL3-409vMnIPWBH1ea4-3" value="&lt;font style=&quot;font-size: 21px;&quot;&gt;num &amp;gt; 0&lt;/font&gt;" style="rhombus;whiteSpace=wrap;html=1;" vertex="1" parent="WIyWlLk6GJQsqaUBKTNV-1">
          <mxGeometry x="313.75" y="310" width="142.5" height="110" as="geometry" />
        </mxCell>
        <mxCell id="DnL3-409vMnIPWBH1ea4-14" style="edgeStyle=orthogonalEdgeStyle;rounded=0;orthogonalLoop=1;jettySize=auto;html=1;entryX=0;entryY=0.5;entryDx=0;entryDy=0;" edge="1" parent="WIyWlLk6GJQsqaUBKTNV-1" source="DnL3-409vMnIPWBH1ea4-5" target="DnL3-409vMnIPWBH1ea4-12">
          <mxGeometry relative="1" as="geometry">
            <Array as="points">
              <mxPoint x="160" y="570" />
            </Array>
          </mxGeometry>
        </mxCell>
        <mxCell id="DnL3-409vMnIPWBH1ea4-5" value="&lt;font style=&quot;font-size: 24px;&quot;&gt;menfi&lt;/font&gt;" style="shape=document;whiteSpace=wrap;html=1;boundedLbl=1;" vertex="1" parent="WIyWlLk6GJQsqaUBKTNV-1">
          <mxGeometry x="110" y="340" width="120" height="80" as="geometry" />
        </mxCell>
        <mxCell id="DnL3-409vMnIPWBH1ea4-9" value="&lt;font style=&quot;font-size: 17px;&quot;&gt;False&lt;/font&gt;" style="text;html=1;align=center;verticalAlign=middle;whiteSpace=wrap;rounded=0;" vertex="1" parent="WIyWlLk6GJQsqaUBKTNV-1">
          <mxGeometry x="240" y="340" width="60" height="30" as="geometry" />
        </mxCell>
        <mxCell id="DnL3-409vMnIPWBH1ea4-15" style="edgeStyle=orthogonalEdgeStyle;rounded=0;orthogonalLoop=1;jettySize=auto;html=1;entryX=1;entryY=0.5;entryDx=0;entryDy=0;" edge="1" parent="WIyWlLk6GJQsqaUBKTNV-1" source="DnL3-409vMnIPWBH1ea4-10" target="DnL3-409vMnIPWBH1ea4-12">
          <mxGeometry relative="1" as="geometry">
            <Array as="points">
              <mxPoint x="610" y="570" />
            </Array>
          </mxGeometry>
        </mxCell>
        <mxCell id="DnL3-409vMnIPWBH1ea4-10" value="&lt;font style=&quot;font-size: 24px;&quot;&gt;mÃ¼sbet&lt;/font&gt;" style="shape=document;whiteSpace=wrap;html=1;boundedLbl=1;" vertex="1" parent="WIyWlLk6GJQsqaUBKTNV-1">
          <mxGeometry x="560" y="325" width="120" height="80" as="geometry" />
        </mxCell>
        <mxCell id="DnL3-409vMnIPWBH1ea4-12" value="&lt;font style=&quot;font-size: 23px;&quot;&gt;END&lt;/font&gt;" style="rounded=1;whiteSpace=wrap;html=1;" vertex="1" parent="WIyWlLk6GJQsqaUBKTNV-1">
          <mxGeometry x="325" y="540" width="120" height="60" as="geometry" />
        </mxCell>
        <mxCell id="DnL3-409vMnIPWBH1ea4-21" value="&lt;font style=&quot;font-size: 18px;&quot;&gt;True&lt;/font&gt;" style="text;html=1;align=center;verticalAlign=middle;whiteSpace=wrap;rounded=0;" vertex="1" parent="WIyWlLk6GJQsqaUBKTNV-1">
          <mxGeometry x="460" y="340" width="60" height="30" as="geometry" />
        </mxCell>
      </root>
    </mxGraphModel>
  </diagram>
</mxfile>
